<svg width="803" height="776" viewBox="0 0 803 776" fill="none" xmlns="http://www.w3.org/2000/svg">
<ellipse cx="401.252" cy="507.045" rx="401.252" ry="268.53" fill="#C4996D"/>
<path d="M802.505 507.045C802.505 655.35 622.858 775.575 401.252 775.575C179.647 775.575 0 655.35 0 507.045C0 358.74 179.647 695.47 401.252 695.47C622.858 695.47 802.505 358.74 802.505 507.045Z" fill="#946C45"/>
<ellipse cx="401.252" cy="454.649" rx="266.566" ry="145.601" fill="#946C45"/>
<path d="M618.434 504.672C618.434 545.377 521.198 587.151 401.252 587.151C281.306 587.151 184.071 545.377 184.071 504.672C184.071 463.968 281.306 430.97 401.252 430.97C521.198 430.97 618.434 463.968 618.434 504.672Z" fill="#C4996D"/>
<path d="M27.4985 542.816C24.5054 564.311 35.5796 617.782 103.821 659.699C189.122 712.095 195.856 669.775 247.486 693.958C288.79 713.304 314.081 732.919 321.563 740.308M227.283 722.171C271.43 747.698 392.049 787.062 521.348 740.308M67.9043 556.922C62.6665 579.09 69.7002 628.261 139.737 647.608C209.774 666.954 227.283 677.5 227.283 680.355M16.2747 504.526C48.4497 522.663 116.055 568.409 129.074 606.295C142.094 644.182 294.252 692.279 368.703 711.591M287.892 704.034C313.145 706.385 365.153 720.327 390.59 740.308C408.548 754.415 418.649 771.377 418.649 773.056M404.62 729.225C435.672 708.401 510.348 669.473 560.631 680.355C654.013 699.298 727.866 652.982 753.12 627.455M427.067 750.385C533.918 738.293 576.719 714.446 584.762 704.034M549.407 750.385C568.114 728.217 618.658 685.897 671.186 693.958M727.305 567.502C728.615 597.563 708.786 661.311 618.995 675.821M584.762 675.821C598.231 652.646 637.402 606.799 686.338 608.814C735.274 610.83 775.942 574.388 790.159 555.915M661.646 593.7C680.539 563.136 731.458 505.534 783.986 519.64" stroke="#795036" stroke-width="5"/>
<path d="M107.89 381.803C92.0341 401.744 65.0797 448.42 84.1064 475.594C107.89 509.561 117.403 564.822 201.834 590.171C286.264 615.52 394.478 643.911 470.585 617.041C546.692 590.171 582.366 606.901 656.689 531.869C731.012 456.836 666.797 381.803 676.905 381.803C687.013 381.803 586.529 297.645 498.53 282.435C410.532 267.226 368.317 260.128 298.156 282.435C227.995 304.742 242.265 287.505 183.996 325.021C137.381 355.035 113.836 375.381 107.89 381.803ZM119.781 391.943C103.926 411.884 76.9714 458.559 95.998 485.734C119.781 519.701 129.295 574.962 213.725 600.311C298.156 625.659 406.37 654.05 482.477 627.18C558.583 600.311 594.258 617.041 668.581 542.008C742.904 466.975 678.689 391.943 688.797 391.943C698.905 391.943 598.42 307.784 510.422 292.575C422.424 277.365 380.208 270.268 310.048 292.575C239.887 314.882 254.157 297.645 195.888 335.161C149.273 365.174 125.727 385.521 119.781 391.943Z" stroke="#795036" stroke-width="5"/>
<path d="M52.1907 428.955C45.1927 455.561 125.895 529.864 155.327 554.427C192.117 585.131 223.986 643.48 315.39 647.203C406.794 650.926 434.727 697.848 496.655 646.242C558.583 594.636 644.81 593.7 677.359 523.167C692.758 489.798 685.216 398.726 628.396 358.243C620.39 352.539 514.913 272.395 424.261 280.907C333.609 289.419 308.957 236.056 250.853 280.907C192.749 325.758 141.454 294.135 101.014 352.376C68.663 398.969 55.2497 420.145 52.1907 428.955ZM74.8058 445.508C67.8078 472.115 144.607 531.469 174.038 556.032C210.828 586.737 242.697 645.086 334.101 648.808C425.505 652.531 522.728 660.559 584.656 608.953C646.583 557.347 699.938 568.77 728.076 461.241C742.457 406.283 656.595 336.254 650.422 336.254C640.201 336.254 549.312 253.111 458.66 261.623C368.008 270.135 339.673 259.16 281.569 304.01C223.465 348.861 164.861 317.913 124.422 376.154C92.0706 422.747 77.8647 436.698 74.8058 445.508Z" stroke="#795036" stroke-width="5"/>
<path d="M209.325 506.541C249.731 475.977 365.336 426.033 504.512 470.771M347.378 569.014C398.446 575.899 514.95 573.044 572.416 506.541M296.31 535.258C312.958 510.908 363.204 466.64 430.996 484.374M400.691 535.258C432.866 537.61 504.736 535.158 534.816 506.541" stroke="#795036" stroke-width="5"/>
<circle cx="401.623" cy="545.585" r="22.3378" fill="#344A5E"/>
<path d="M339.463 438.749H463.783V537.615C463.783 541.205 460.872 544.115 457.283 544.115H345.963C342.373 544.115 339.463 541.205 339.463 537.615V438.749Z" fill="#344A5E" stroke="#3F5162" stroke-width="7"/>
<g filter="url(#filter0_i_2012_57)">
<path fill-rule="evenodd" clip-rule="evenodd" d="M523.005 361.552C546.515 333.234 560.695 296.582 560.695 256.547C560.695 166.824 489.476 94.0897 401.623 94.0897C313.769 94.0897 242.55 166.824 242.55 256.547C242.55 296.582 256.73 333.235 280.241 361.553L335.963 435.249H467.283L523.005 361.552Z" fill="#FFD15C"/>
</g>
<rect x="327.84" y="455.557" width="147.565" height="23.0147" rx="10" fill="#415A6B"/>
<rect x="327.84" y="492.109" width="147.565" height="23.0147" rx="10" fill="#415A6B"/>
<rect x="172.152" y="425.397" width="75.8133" height="23.0147" rx="10" transform="rotate(-43.7468 172.152 425.397)" fill="#FFD15C"/>
<rect x="177.324" y="81.9054" width="75.8133" height="23.0147" rx="10" transform="rotate(31.2532 177.324 81.9054)" fill="#FFD15C"/>
<rect x="118" y="249.778" width="75.8133" height="23.0147" rx="10" fill="#FFD15C"/>
<rect x="560.695" y="128.913" width="75.8133" height="23.0147" rx="10" transform="rotate(-43.7468 560.695 128.913)" fill="#FFD15C"/>
<rect x="572.636" y="382.451" width="75.8133" height="23.0147" rx="10" transform="rotate(31.2532 572.636 382.451)" fill="#FFD15C"/>
<rect x="593.187" y="249.778" width="75.8133" height="23.0147" rx="10" fill="#FFD15C"/>
<rect x="389.438" y="75.8133" width="75.8133" height="23.0147" rx="10" transform="rotate(-90 389.438 75.8133)" fill="#FFD15C"/>
<rect x="330.077" y="334.032" width="63.9258" height="38.288" transform="rotate(-45 330.077 334.032)" fill="#BFDCFF" stroke="black" stroke-width="2"/>
<rect x="376.694" y="287.415" width="148.164" height="38.288" transform="rotate(-45 376.694 287.415)" fill="#1E8AFF" stroke="black" stroke-width="2"/>
<path d="M312.033 383.322L306.584 377.873L328.913 335.696L355.451 362.234L312.033 383.322Z" fill="#1E8AFF" stroke="black" stroke-width="2"/>
<rect x="485.466" y="189.002" width="38.288" height="21.8065" transform="rotate(-45 485.466 189.002)" fill="#54A5FF" stroke="black" stroke-width="2"/>
<rect x="472.517" y="191.592" width="12.6502" height="38.288" transform="rotate(-45 472.517 191.592)" fill="#5BA2F7" stroke="black" stroke-width="2"/>
<path d="M420.61 240.688C417.095 237.173 417.095 231.475 420.61 227.96L473.692 174.877L487.817 189.002L434.735 242.084C431.22 245.599 425.521 245.599 422.007 242.084L420.61 240.688Z" fill="#BFDCFF" stroke="black" stroke-width="2"/>
<defs>
<filter id="filter0_i_2012_57" x="234.25" y="94.0897" width="326.445" height="341.16" filterUnits="userSpaceOnUse" color-interpolation-filters="sRGB">
<feFlood flood-opacity="0" result="BackgroundImageFix"/>
<feBlend mode="normal" in="SourceGraphic" in2="BackgroundImageFix" result="shape"/>
<feColorMatrix in="SourceAlpha" type="matrix" values="0 0 0 0 0 0 0 0 0 0 0 0 0 0 0 0 0 0 127 0" result="hardAlpha"/>
<feOffset dx="-20"/>
<feGaussianBlur stdDeviation="4.15"/>
<feComposite in2="hardAlpha" operator="arithmetic" k2="-1" k3="1"/>
<feColorMatrix type="matrix" values="0 0 0 0 0 0 0 0 0 0 0 0 0 0 0 0 0 0 0.25 0"/>
<feBlend mode="normal" in2="shape" result="effect1_innerShadow_2012_57"/>
</filter>
</defs>
</svg>
