<svg width="463" height="132" viewBox="0 0 463 132" fill="none" xmlns="http://www.w3.org/2000/svg">
<path d="M17.4163 131.042H-0.00893544V29.395H17.4163V33.3156C22.9343 30.0242 28.5975 28.5721 34.4059 28.9593C40.2143 29.2497 45.587 31.0407 50.5242 34.3321C55.4613 37.6235 59.4304 42.0766 62.4314 47.6914C65.4324 53.3062 66.9329 59.7439 66.9329 67.0044C66.9329 73.5872 65.4324 79.5892 62.4314 85.0104C59.5272 90.4316 55.5581 94.7879 50.5242 98.0793C45.587 101.274 40.0206 102.92 33.825 103.016C32.3729 103.016 30.582 102.92 28.4522 102.726C26.3225 102.532 24.2411 102.194 22.2082 101.71C20.2721 101.129 18.6748 100.403 17.4163 99.5314V131.042ZM17.4163 83.1227C23.0311 85.7365 28.2586 86.7529 33.099 86.1721C37.9393 85.5913 41.86 83.6551 44.861 80.3637C47.862 76.9755 49.3625 72.5224 49.3625 67.0044C49.3625 60.6151 47.7652 55.5812 44.5706 51.9025C41.4727 48.2239 37.5037 46.1425 32.6633 45.6585C27.823 45.1745 22.7406 46.5297 17.4163 49.7244V83.1227ZM97.3953 102H79.9701V0.352935H97.3953V102ZM132.787 102.726C125.43 102.339 119.863 100.257 116.088 96.482C112.312 92.6097 110.424 87.2854 110.424 80.5089C110.424 75.5718 111.683 71.3607 114.2 67.8756C116.717 64.2938 120.057 61.4864 124.219 59.4534C128.382 57.4205 132.98 56.162 138.014 55.678C143.145 55.1939 148.324 55.5328 153.552 56.6945V52.1929C153.552 49.0951 152.293 46.8686 149.776 45.5133C147.259 44.158 144.162 43.5287 140.483 43.6255C136.901 43.7224 133.271 44.4484 129.592 45.8037C126.01 47.0622 123.106 48.9015 120.88 51.3217L111.151 40.7213C114.829 37.1395 119.185 34.3321 124.219 32.2992C129.253 30.2662 134.433 29.1045 139.757 28.8141C145.178 28.5237 150.26 29.1529 155.004 30.7018C159.844 32.2508 163.813 34.7677 166.911 38.2528C169.331 40.9634 170.687 44.5452 170.977 48.9983C171.267 53.4514 171.413 58.3402 171.413 63.6645V102H153.697V95.3203C150.696 98.1277 147.356 100.112 143.678 101.274C139.999 102.339 136.369 102.823 132.787 102.726ZM153.116 81.5254V69.0373C143.048 68.2629 136.03 68.8921 132.061 70.925C128.188 72.958 126.252 76.1042 126.252 80.3637C126.252 83.0743 127.172 85.0588 129.011 86.3173C130.947 87.479 133.319 88.0598 136.127 88.0598C139.031 87.963 141.983 87.3822 144.984 86.3173C148.082 85.1556 150.793 83.5583 153.116 81.5254ZM344.334 72.3771H293.511C293.898 76.7334 295.544 80.0733 298.448 82.3966C301.352 84.72 304.934 86.0753 309.193 86.4625C313.453 86.7529 317.809 86.1721 322.262 84.72C326.812 83.1711 330.878 80.8477 334.46 77.7499L344.044 90.964C338.719 95.4171 333.298 98.6118 327.78 100.548C322.359 102.387 316.986 103.307 311.662 103.307C299.367 103.307 290.122 99.8703 283.927 92.997C277.828 86.1237 274.778 76.3946 274.778 63.8097C274.778 56.646 276.182 50.402 278.99 45.0776C281.894 39.7533 285.96 35.639 291.187 32.7348C296.512 29.8306 302.756 28.4269 309.919 28.5237C325.602 28.7173 336.057 34.8645 341.285 46.9654C342.737 50.4504 343.656 54.2743 344.044 58.437C344.528 62.5997 344.625 67.2464 344.334 72.3771ZM311.517 44.7872C305.611 44.7872 301.11 46.3845 298.012 49.5792C295.011 52.7738 293.511 56.3072 293.511 60.1795H329.377C329.377 56.2104 327.829 52.677 324.731 49.5792C321.73 46.3845 317.325 44.7872 311.517 44.7872ZM356.317 92.1257L366.482 81.235C371.613 85.6881 376.889 87.9146 382.31 87.9146C383.859 87.9146 385.263 87.7694 386.521 87.479C387.876 87.0918 388.99 86.5109 389.861 85.7365C391.023 84.6716 391.7 83.4131 391.894 81.961C392.087 80.4121 392.087 79.1536 391.894 78.1855C391.507 76.443 390.296 75.0877 388.264 74.1197C386.327 73.0548 383.907 72.1351 381.003 71.3607C378.196 70.4894 375.291 69.4245 372.29 68.166C369.289 66.9076 366.627 65.2134 364.304 63.0837C360.528 59.5018 358.35 55.7264 357.769 51.7573C357.285 47.6914 358.06 43.916 360.093 40.4309C362.223 36.9459 365.32 34.1385 369.386 32.0087C373.452 29.7822 378.196 28.6689 383.617 28.6689C388.748 28.6689 393.346 29.5886 397.412 31.4279C401.478 33.1704 404.721 35.4454 407.141 38.2528L396.105 48.1271C394.556 46.675 392.62 45.6101 390.296 44.9324C388.07 44.158 385.892 43.7708 383.762 43.7708C381.535 43.7708 379.599 44.2548 377.954 45.2229C376.308 46.0941 375.485 47.643 375.485 49.8696C375.485 51.6121 376.163 53.0158 377.518 54.0807C378.873 55.1455 380.616 56.0652 382.746 56.8397C384.972 57.6141 387.344 58.437 389.861 59.3082C392.475 60.0827 394.943 61.0992 397.267 62.3576C400.268 63.9066 402.785 66.1331 404.817 69.0373C406.85 71.8447 407.867 75.5234 407.867 80.0733C407.867 85.0104 406.657 89.1731 404.237 92.5613C401.913 95.9496 398.815 98.5634 394.943 100.403C391.071 102.145 386.811 103.016 382.165 103.016C377.615 103.016 373.065 102.145 368.515 100.403C364.062 98.5634 359.996 95.8044 356.317 92.1257ZM430.022 69.0373V45.5133H419.421V29.395H430.022V0.352935H447.156V29.395H458.483V45.5133H447.156V69.0373C447.156 73.3936 447.495 76.685 448.173 78.9116C448.851 81.1382 449.77 82.6871 450.932 83.5583C452.19 84.3328 453.546 84.7684 454.998 84.8652C456.547 84.962 458.096 85.0104 459.645 85.0104H462.113V102.29H459.935C454.611 102.29 450.061 101.903 446.285 101.129C442.51 100.354 439.412 98.8538 436.992 96.6272C434.572 94.3039 432.781 90.964 431.619 86.6077C430.554 82.1546 430.022 76.2978 430.022 69.0373Z" fill="#FFD15C"/>
<path d="M261.699 102H239.337L203.325 23.0057V101.855H185.9V0.352935H209.859L244.274 77.7499V0.352935H261.699V102Z" fill="#1E8AFF"/>
</svg>
